<?xml version="1.0" encoding="utf-8"?><svg xmlns="http://www.w3.org/2000/svg" xmlns:xlink="http://www.w3.org/1999/xlink"><symbol viewBox="0 0 2000.000000 2000.000000" id="fb-c" xmlns="http://www.w3.org/2000/svg"><path d="M968 8.6c-148.8 6.1-279.7 38.9-407 102C460.7 160.3 378.8 219.1 299 299c-79.9 79.8-138.7 161.7-188.4 262C51.5 680.3 19.1 802.6 9.8 941c-2.6 39.5-1.4 106.4 2.8 152 16.5 181.7 84.3 356.8 195.1 503.8 28.8 38.2 54.2 67.1 91.3 104.2 37.1 37.1 66 62.5 104.2 91.3 147.1 110.8 321.3 178.3 503.8 195.1 34.1 3.2 52.6 4 93 4 86.5 0 160.5-9 242-29.4 70.2-17.6 133.4-41 199-73.6 80.1-39.9 146.7-84.7 216-145.3 20-17.4 68.7-66.1 86.1-86.1 62.2-71.1 107.6-139.1 148-221.5 58.3-119 89.5-237.7 99.1-376.5 2.6-38.4 1.4-107.2-2.8-152-16.8-182.5-84.3-356.7-195.1-503.8-28.8-38.2-54.2-67.1-91.3-104.2-28.4-28.4-46.7-45.2-73.7-67.3-102.7-84.3-225-148.4-353.3-185.2-69.3-19.8-137.2-31.4-213.5-36.5-15.8-1.1-78.1-2-92.5-1.4zm289.4 339.2c1.5 1.7 1.6 10.5 1.4 114.5-.2 90.7-.6 112.9-1.6 113.9s-15.7 1.4-70 2c-42.2.4-70.2 1-72.7 1.6-2.2.6-6.5 1.7-9.5 2.5-4.9 1.3-11.3 4.1-19 8.2-5.6 3.1-18 18.9-18 23 0 .6-.7 2.7-1.6 4.5-.9 1.8-2.1 6.7-2.5 10.9-.5 4.2-1.3 11.6-1.9 16.6-1 9.6-1.4 137.2-.4 139.9.6 1.4 10.1 1.6 97.8 1.6 80 0 97.5.2 99.1 1.4 1.5 1 1.7 2 1.1 5.2-1.6 8.6-2.8 18.5-3.6 30.4-.5 6.9-1.4 15.6-2 19.5-.6 3.8-1.5 12.8-2 20-.6 7.1-1.5 16.1-2 20-.6 3.8-1.5 12.8-2 20-.6 7.1-1.5 16.1-2 20-.6 3.8-1.5 12.6-2 19.5s-1.4 15.6-2 19.5c-.6 3.8-1.5 12.6-2 19.5-.8 11.2-1.5 17.8-3.8 32l-.7 4.5-85.9.3c-61.5.1-86.3.5-87.3 1.3-1.1 1-1.3 56.5-1.3 334.9 0 183.6-.3 334.5-.6 335.4-.6 1.4-12.9 1.6-129.6 1.6-87 0-129.6-.3-130.9-1-1.9-1.1-1.9-5.9-1.9-335.3 0-258.7-.3-334.6-1.2-335.5-.9-.9-16.3-1.2-63.3-1.2-34.1 0-63-.3-64.2-.6l-2.3-.6V903.6c0-87.5.3-114.5 1.2-115.4.9-.9 16.6-1.2 64.3-1.2 47.7 0 63.4-.3 64.3-1.2.9-.9 1.2-18.1 1.3-70.8 0-38.2.5-78.1 1-88.5 1.8-36.2 2.8-49 3.9-53.5.7-2.5 1.5-8.3 2-13 .4-4.7 1.5-10.8 2.4-13.5.9-2.8 1.6-6.7 1.6-8.8 0-2.1.9-5.7 2-7.9 1.1-2.3 2-5.6 2-7.4 0-1.8.9-5.3 2-7.9 1.1-2.6 2-5.4 2-6.4 0-.9.9-3.6 2-5.9 1.1-2.2 2-4.7 2-5.5 0-.7.9-3.2 2-5.5 1.1-2.2 2-4.5 2-5 0-.9 7-15.6 9.1-19.2.4-.8 2.1-4 3.7-7 6.7-12.8 20.8-31.5 32.5-43.3 10.4-10.4 24.3-22.1 28.2-23.8.6-.2 3.5-2 6.5-4 11.2-7.3 21.2-12.9 23.1-12.9.6 0 2.2-.9 3.6-2s3.6-2 4.9-2c1.2 0 2.5-.4 2.8-.9.3-.4 3.4-1.9 6.8-3.1 3.5-1.3 6.8-2.6 7.3-3 .6-.4 2.8-1.1 5-1.5 2.2-.4 4.5-1 5-1.5 1.2-.9 15.6-4.8 23-6.2 2.8-.5 6.8-1.4 9-1.9 2.2-.6 10.5-1.9 18.5-2.9 8-1.1 15.6-2.3 17-2.6 5.7-1.6 35.7-2.1 127.6-2.2 93.2-.2 97.2-.1 98.8 1.6z"/></symbol><symbol viewBox="0 0 50 50" id="github_round" xmlns="http://www.w3.org/2000/svg"><path d="M30.5 24.5c-1.031 0-2.016.188-3.047.328-.812.125-1.625.172-2.453.172s-1.641-.047-2.453-.172c-1.016-.14-2.016-.328-3.047-.328-2.547 0-4 2.109-4 4.5 0 4.781 4.375 5.516 8.188 5.516h2.625c3.813 0 8.188-.734 8.188-5.516-.001-2.391-1.454-4.5-4.001-4.5zM20 32c-1.406 0-2-1.859-2-3s.594-3 2-3 2 1.859 2 3-.594 3-2 3zm10 0c-1.406 0-2-1.859-2-3s.594-3 2-3 2 1.859 2 3-.594 3-2 3z"/><path d="M25 0C11.192 0 0 11.193 0 25s11.192 25 25 25 25-11.193 25-25S38.808 0 25 0zm12.047 31.422C34.984 35.594 29.313 36 25.25 36c-4.125 0-10.141-.359-12.281-4.578-.797-1.578-.969-3.438-.969-5.172 0-2.281.625-4.438 2.125-6.188a8.59 8.59 0 0 1-.422-2.656c0-1.172.266-2.344.797-3.406 2.469 0 4.047 1.078 5.922 2.547A20.895 20.895 0 0 1 25.25 16c1.469 0 2.953.156 4.375.5 1.859-1.453 3.438-2.5 5.875-2.5a7.629 7.629 0 0 1 .797 3.406c0 .891-.141 1.781-.422 2.625C37.375 21.797 38 23.969 38 26.25c0 1.734-.172 3.578-.953 5.172z"/></symbol><symbol viewBox="0 0 50 50" id="in_round" xmlns="http://www.w3.org/2000/svg"><path d="M25 0C11.192 0 0 11.193 0 25s11.192 25 25 25 25-11.193 25-25S38.808 0 25 0zm-5.547 34.136h-5.156V18.651h5.156v15.485zm-2.578-17.594h-.031C15.11 16.542 14 15.354 14 13.87c0-1.516 1.156-2.672 2.906-2.672 1.766 0 2.859 1.156 2.875 2.672.016 1.484-1.109 2.672-2.906 2.672zM38 34.136h-5.141v-8.281c0-2.078-.75-3.5-2.609-3.5-1.422 0-2.266.953-2.641 1.875-.125.344-.172.797-.172 1.266v8.641h-5.141c.063-14.031 0-15.484 0-15.484h5.141v2.204c.678-1.061 1.898-2.563 4.641-2.563 3.391 0 5.922 2.219 5.922 6.969v8.873z"/></symbol></svg>